<?xml version="1.0" encoding="UTF-8"?>
<svg width="192px" height="102px" viewBox="0 0 192 102" version="1.1" xmlns="http://www.w3.org/2000/svg" xmlns:xlink="http://www.w3.org/1999/xlink">
    <!-- Generator: Sketch 58 (84663) - https://sketch.com -->
    <title>logo</title>
    <desc>Created with Sketch.</desc>
    <g id="logo" stroke="none" stroke-width="1" fill="none" fill-rule="evenodd">
        <path d="M114.903299,69.2409011 C115.447848,71.5525909 116.429005,73.8445032 117.84678,76.1166667 C120.048617,79.645388 123.088064,82.8164211 126.965211,85.6298611 C130.842358,88.4433011 135.46136,90.7083333 140.822354,92.425 C146.183348,94.1416753 152.118645,95 158.628423,95 C165.04247,95 170.953834,94.2847222 176.362694,92.8541667 C180.383355,91.7907672 184.007241,90.3716616 187.234409,88.5968329 C185.573579,90.4442276 183.640881,92.1222426 181.435233,93.63125 C177.462354,96.3493191 172.771554,98.4236111 167.362694,99.8541667 C161.953834,101.284722 156.04247,102 149.628423,102 C143.118645,102 137.183348,101.141675 131.822354,99.425 C126.46136,97.7083333 121.842358,95.4433011 117.965211,92.6298611 C114.088064,89.8164211 111.048617,86.645388 108.84678,83.1166667 C106.644943,79.5879453 105.496176,76.0115922 105.400444,72.3875 C105.400444,71.5291624 105.711569,70.7900494 106.333827,70.1701389 C106.956085,69.5502284 107.650132,69.2402778 108.415988,69.2402778 Z M78.0703183,78.1194444 L82.0910437,89.9930556 C82.2825077,90.7560223 82.7850934,91.54282 83.5988157,92.3534722 C84.412538,93.1641244 85.776699,93.5694444 87.6913397,93.5694444 L87.6913397,93.5694444 L98.776,93.569 L99.369356,95.2763889 C99.7522842,96.2300974 99.9437454,96.945368 99.9437454,97.4222222 C99.9437454,98.2805598 99.6326209,99.0196728 99.0103627,99.6395833 C98.3881045,100.259494 97.646188,100.569444 96.784604,100.569444 L78.6913397,100.569444 C76.776699,100.569444 75.412538,100.164124 74.5988157,99.3534722 C73.7850934,98.54282 73.2825077,97.7560223 73.0910437,96.9930556 L69.0703183,85.1194444 L37.503,85.119 L39.8734271,78.1194444 L78.0703183,78.1194444 Z M40.087,0.43 L9.57438934,88.2763889 C9.1914612,89.2300974 9,89.945368 9,90.4222222 C9,91.2805598 9.31112445,92.0196728 9.93338268,92.6395833 C10.5556409,93.2594938 11.2975531,93.5694444 12.1591414,93.5694444 L12.1591414,93.5694444 L28.012,93.569 L26.8527017,96.9930556 C26.6612376,97.7560223 26.158652,98.54282 25.3449297,99.3534722 C24.5312074,100.164124 23.1670463,100.569444 21.2524056,100.569444 L3.15914138,100.569444 C2.29755306,100.569444 1.55564091,100.259494 0.933382679,99.6395833 C0.311124449,99.0196728 0,98.2805598 0,97.4222222 C0,96.945368 0.191461199,96.2300974 0.574389341,95.2763889 L31.8786084,5.15138889 C32.2615366,4.10230957 32.9555834,3.05324599 33.9607698,2.00416667 C34.9659562,0.955087347 36.4258478,0.430555556 38.3404885,0.430555556 L40.087,0.43 Z M124.511243,4.74559457 C122.709618,6.72186872 121.230056,8.86314416 120.072539,11.1694444 C118.205764,14.8889075 117.272391,18.7990536 117.272391,22.9 C117.272391,31.1018929 119.545993,37.6585403 124.093264,42.5701389 C128.640536,47.4817375 135.844264,50.9865636 145.704663,53.0847222 C149.916873,54.0002778 153.684842,54.7937568 157.008641,55.4651652 L157.008641,55.4651652 L160.184384,56.0987444 C163.716677,56.8138125 166.644334,57.5496413 168.967432,58.30625 C171.456464,59.1169022 173.323211,59.9990693 174.567728,60.9527778 C175.812244,61.9064862 176.434493,63.098604 176.434493,64.5291667 C176.434493,67.3902921 174.735275,69.3692075 171.336788,70.4659722 C170.139196,70.8524608 168.837593,71.170851 167.431974,71.4211437 L167.434493,71.5291667 C167.434493,70.098604 166.812244,68.9064863 165.567728,67.9527778 C164.323211,66.9990693 162.456464,66.1169022 159.967432,65.30625 C157.644334,64.5496413 154.716677,63.8138125 151.184384,63.0987444 L148.008641,62.4651652 C144.961825,61.8497075 141.541783,61.1316766 137.748461,60.3110679 L136.704663,60.0847222 C126.844264,57.9865636 119.640536,54.4817375 115.093264,49.5701389 C110.545993,44.6585403 108.272391,38.1018929 108.272391,29.9 C108.272391,25.7990536 109.205764,21.8889075 111.072539,18.1694444 C112.939314,14.4499814 115.643703,11.1597365 119.185788,8.29861111 C120.795827,6.99809956 122.559143,5.82074953 124.475747,4.76655464 Z M58.9718727,21.6125 L70.6032568,55.9458333 L59.231,55.945 L53.285,38.395 L58.9718727,21.6125 Z M157.910437,14.8888889 C160.39947,14.8888889 162.505551,15.1511548 164.228719,15.6756944 C165.951896,16.2002341 167.387855,16.8201353 168.53664,17.5354167 C169.685418,18.250698 170.570932,18.9421263 171.19319,19.6097222 C171.504319,19.9435202 171.773564,20.2296309 172.000926,20.4680563 L172.000926,20.4680563 L172.557365,21.0402778 C173.418953,21.8032446 174.256596,22.3754611 175.070318,22.7569444 C175.884041,23.1384278 176.96101,23.3291667 178.301258,23.3291667 L178.301258,23.3291667 L190.495697,23.3295854 C190.877752,24.6380764 191.088537,25.9221938 191.128053,27.1819444 C191.128053,28.0402821 190.816929,28.779395 190.194671,29.3993056 C189.572412,30.0192161 188.878366,30.3291667 188.112509,30.3291667 L169.301258,30.3291667 C167.96101,30.3291667 166.884041,30.1384278 166.070318,29.7569444 C165.256596,29.3754611 164.418953,28.8032446 163.557365,28.0402778 L163.000926,27.4680563 C162.773564,27.2296309 162.504319,26.9435202 162.19319,26.6097222 C161.570932,25.9421263 160.685418,25.250698 159.53664,24.5354167 C158.387855,23.8201353 156.951896,23.2002341 155.228719,22.6756944 C153.505551,22.1511548 151.39947,21.8888889 148.910437,21.8888889 C147.15235,21.8888889 145.461366,22.0002613 143.837436,22.2230095 L143.837898,22.1847222 C143.837898,20.7541595 144.244753,19.5620418 145.058475,18.6083333 C145.872198,17.6546249 146.925234,16.9155119 148.217617,16.3909722 C149.509999,15.8664326 150.993823,15.4849549 152.669134,15.2465278 C154.344445,15.0081007 156.091528,14.8888889 157.910437,14.8888889 Z" id="Combined-Shape" fill="#000000" fill-rule="nonzero"></path>
    </g>
</svg>