<?xml version="1.0" encoding="UTF-8"?>
<svg width="150px" height="90px" viewBox="0 0 150 90" version="1.1" xmlns="http://www.w3.org/2000/svg" xmlns:xlink="http://www.w3.org/1999/xlink">
    <!-- Generator: Sketch 57 (83077) - https://sketch.com -->
    <title>logo</title>
    <desc>Created with Sketch.</desc>
    <defs>
        <rect id="path-1" x="0" y="0" width="42" height="90"></rect>
        <rect id="path-3" x="0" y="0" width="21" height="90"></rect>
        <rect id="path-5" x="0" y="0" width="9" height="90"></rect>
        <rect id="path-7" x="0" y="0" width="42" height="84"></rect>
        <rect id="path-9" x="0" y="0" width="21" height="84"></rect>
        <rect id="path-11" x="0" y="0" width="9" height="84"></rect>
    </defs>
    <g id="logo" stroke="none" stroke-width="1" fill="none" fill-rule="evenodd">
        <g id="Group-3">
            <g id="Group-2">
                <g id="Group">
                    <g id="S-Copy" transform="translate(78.000000, 0.000000)">
                        <mask id="mask-2" fill="white">
                            <use xlink:href="#path-1"></use>
                        </mask>
                        <g id="Mask"></g>
                        <path d="M5.16,1.8 C10.5200268,1.8 15.2399796,2.5199928 19.32,3.96 C23.4000204,5.4000072 26.7999864,7.1999892 29.52,9.36 C32.2400136,11.5200108 34.299993,13.899987 35.7,16.5 C37.100007,19.100013 37.8799992,21.5599884 38.04,23.88 C38.1200004,24.8400048 37.8200034,25.619997 37.14,26.22 C36.4599966,26.820003 35.6800044,27.12 34.8,27.12 L26.4,27.12 C25.0399932,27.12 24.0200034,26.8600026 23.34,26.34 C22.6599966,25.8199974 22.0400028,25.1200044 21.48,24.24 C20.279994,22.23999 18.4600122,20.5000074 16.02,19.02 C13.5799878,17.5399926 9.960024,16.8 5.16,16.8 C3.0799896,16.8 1.1000094,17.0199978 -0.78,17.46 C-2.6600094,17.9000022 -4.299993,18.5399958 -5.7,19.38 C-7.100007,20.2200042 -8.199996,21.239994 -9,22.44 C-9.800004,23.640006 -10.2,24.9999924 -10.2,26.52 C-10.2,28.3600092 -9.8200038,29.8599942 -9.06,31.02 C-8.2999962,32.1800058 -7.020009,33.1799958 -5.22,34.02 C-3.419991,34.8600042 -1.0400148,35.6399964 1.92,36.36 C4.8800148,37.0800036 8.559978,37.9199952 12.96,38.88 C17.760024,39.9200052 21.8999826,41.139993 25.38,42.54 C28.8600174,43.940007 31.699989,45.6199902 33.9,47.58 C36.100011,49.5400098 37.7399946,51.7999872 38.82,54.36 C39.9000054,56.9200128 40.44,59.8399836 40.44,63.12 C40.44,66.720018 39.640008,70.0599846 38.04,73.14 C36.439992,76.2200154 34.1600148,78.859989 31.2,81.06 C28.2399852,83.260011 24.6000216,84.9999936 20.28,86.28 C15.9599784,87.5600064 11.1200268,88.2 5.76,88.2 C1.2799776,88.2 -2.9999796,87.6600054 -7.08,86.58 C-11.1600204,85.4999946 -14.7799842,83.9400102 -17.94,81.9 C-21.1000158,79.8599898 -23.6399904,77.4000144 -25.56,74.52 C-27.4800096,71.6399856 -28.5599988,68.4400176 -28.8,64.92 C-28.8800004,63.9599952 -28.5800034,63.180003 -27.9,62.58 C-27.2199966,61.979997 -26.4400044,61.68 -25.56,61.68 L-17.16,61.68 C-15.7999932,61.68 -14.7600036,61.9199976 -14.04,62.4 C-13.3199964,62.8800024 -12.7200024,63.5999952 -12.24,64.56 C-11.6799972,65.6000052 -11.000004,66.6399948 -10.2,67.68 C-9.399996,68.7200052 -8.3200068,69.639996 -6.96,70.44 C-5.5999932,71.240004 -3.9000102,71.8999974 -1.86,72.42 C0.1800102,72.9400026 2.7199848,73.2 5.76,73.2 C8.160012,73.2 10.4799888,73.0200018 12.72,72.66 C14.9600112,72.3 16.9199916,71.7000042 18.6,70.86 C20.2800084,70.0199958 21.6399948,68.9800062 22.68,67.74 C23.7200052,66.4999938 24.24,64.9600092 24.24,63.12 C24.24,61.3599912 23.6800056,59.9200056 22.56,58.8 C21.4399944,57.6799944 19.7400114,56.720004 17.46,55.92 C15.1799886,55.119996 12.3600168,54.3600036 9,53.64 C5.6399832,52.9199964 1.760022,52.0000056 -2.64,50.88 C-6.64002,49.9199952 -10.139985,48.7800066 -13.14,47.46 C-16.140015,46.1399934 -18.6199902,44.5200096 -20.58,42.6 C-22.5400098,40.6799904 -23.9999952,38.420013 -24.96,35.82 C-25.9200048,33.219987 -26.4,30.120018 -26.4,26.52 C-26.4,22.919982 -25.600008,19.6000152 -24,16.56 C-22.399992,13.5199848 -20.200014,10.9200108 -17.4,8.76 C-14.599986,6.5999892 -11.2600194,4.9000062 -7.38,3.66 C-3.4999806,2.4199938 0.6799776,1.8 5.16,1.8 Z" id="S" fill="#000000" fill-rule="nonzero" mask="url(#mask-2)"></path>
                    </g>
                    <g id="S-Copy-2" transform="translate(120.000000, 0.000000)">
                        <mask id="mask-4" fill="white">
                            <use xlink:href="#path-3"></use>
                        </mask>
                        <g id="Mask"></g>
                        <path d="M-15.84,1.8 C-10.4799732,1.8 -5.7600204,2.5199928 -1.68,3.96 C2.4000204,5.4000072 5.7999864,7.1999892 8.52,9.36 C11.2400136,11.5200108 13.299993,13.899987 14.7,16.5 C16.100007,19.100013 16.8799992,21.5599884 17.04,23.88 C17.1200004,24.8400048 16.8200034,25.619997 16.14,26.22 C15.4599966,26.820003 14.6800044,27.12 13.8,27.12 L5.4,27.12 C4.0399932,27.12 3.0200034,26.8600026 2.34,26.34 C1.6599966,25.8199974 1.0400028,25.1200044 0.48,24.24 C-0.720006,22.23999 -2.5399878,20.5000074 -4.98,19.02 C-7.4200122,17.5399926 -11.039976,16.8 -15.84,16.8 C-17.9200104,16.8 -19.8999906,17.0199978 -21.78,17.46 C-23.6600094,17.9000022 -25.299993,18.5399958 -26.7,19.38 C-28.100007,20.2200042 -29.199996,21.239994 -30,22.44 C-30.800004,23.640006 -31.2,24.9999924 -31.2,26.52 C-31.2,28.3600092 -30.8200038,29.8599942 -30.06,31.02 C-29.2999962,32.1800058 -28.020009,33.1799958 -26.22,34.02 C-24.419991,34.8600042 -22.0400148,35.6399964 -19.08,36.36 C-16.1199852,37.0800036 -12.440022,37.9199952 -8.04,38.88 C-3.239976,39.9200052 0.8999826,41.139993 4.38,42.54 C7.8600174,43.940007 10.699989,45.6199902 12.9,47.58 C15.100011,49.5400098 16.7399946,51.7999872 17.82,54.36 C18.9000054,56.9200128 19.44,59.8399836 19.44,63.12 C19.44,66.720018 18.640008,70.0599846 17.04,73.14 C15.439992,76.2200154 13.1600148,78.859989 10.2,81.06 C7.2399852,83.260011 3.6000216,84.9999936 -0.72,86.28 C-5.0400216,87.5600064 -9.8799732,88.2 -15.24,88.2 C-19.7200224,88.2 -23.9999796,87.6600054 -28.08,86.58 C-32.1600204,85.4999946 -35.7799842,83.9400102 -38.94,81.9 C-42.1000158,79.8599898 -44.6399904,77.4000144 -46.56,74.52 C-48.4800096,71.6399856 -49.5599988,68.4400176 -49.8,64.92 C-49.8800004,63.9599952 -49.5800034,63.180003 -48.9,62.58 C-48.2199966,61.979997 -47.4400044,61.68 -46.56,61.68 L-38.16,61.68 C-36.7999932,61.68 -35.7600036,61.9199976 -35.04,62.4 C-34.3199964,62.8800024 -33.7200024,63.5999952 -33.24,64.56 C-32.6799972,65.6000052 -32.000004,66.6399948 -31.2,67.68 C-30.399996,68.7200052 -29.3200068,69.639996 -27.96,70.44 C-26.5999932,71.240004 -24.9000102,71.8999974 -22.86,72.42 C-20.8199898,72.9400026 -18.2800152,73.2 -15.24,73.2 C-12.839988,73.2 -10.5200112,73.0200018 -8.28,72.66 C-6.0399888,72.3 -4.0800084,71.7000042 -2.4,70.86 C-0.7199916,70.0199958 0.6399948,68.9800062 1.68,67.74 C2.7200052,66.4999938 3.24,64.9600092 3.24,63.12 C3.24,61.3599912 2.6800056,59.9200056 1.56,58.8 C0.4399944,57.6799944 -1.2599886,56.720004 -3.54,55.92 C-5.8200114,55.119996 -8.6399832,54.3600036 -12,53.64 C-15.3600168,52.9199964 -19.239978,52.0000056 -23.64,50.88 C-27.64002,49.9199952 -31.139985,48.7800066 -34.14,47.46 C-37.140015,46.1399934 -39.6199902,44.5200096 -41.58,42.6 C-43.5400098,40.6799904 -44.9999952,38.420013 -45.96,35.82 C-46.9200048,33.219987 -47.4,30.120018 -47.4,26.52 C-47.4,22.919982 -46.600008,19.6000152 -45,16.56 C-43.399992,13.5199848 -41.200014,10.9200108 -38.4,8.76 C-35.599986,6.5999892 -32.2600194,4.9000062 -28.38,3.66 C-24.4999806,2.4199938 -20.3200224,1.8 -15.84,1.8 Z" id="S" fill="#000000" fill-rule="nonzero" mask="url(#mask-4)"></path>
                    </g>
                    <g id="S-Copy-3" transform="translate(141.000000, 0.000000)">
                        <mask id="mask-6" fill="white">
                            <use xlink:href="#path-5"></use>
                        </mask>
                        <g id="Mask"></g>
                        <path d="M-27.84,1.8 C-22.4799732,1.8 -17.7600204,2.5199928 -13.68,3.96 C-9.5999796,5.4000072 -6.2000136,7.1999892 -3.48,9.36 C-0.7599864,11.5200108 1.299993,13.899987 2.7,16.5 C4.100007,19.100013 4.8799992,21.5599884 5.04,23.88 C5.1200004,24.8400048 4.8200034,25.619997 4.14,26.22 C3.4599966,26.820003 2.6800044,27.12 1.8,27.12 L-6.6,27.12 C-7.9600068,27.12 -8.9799966,26.8600026 -9.66,26.34 C-10.3400034,25.8199974 -10.9599972,25.1200044 -11.52,24.24 C-12.720006,22.23999 -14.5399878,20.5000074 -16.98,19.02 C-19.4200122,17.5399926 -23.039976,16.8 -27.84,16.8 C-29.9200104,16.8 -31.8999906,17.0199978 -33.78,17.46 C-35.6600094,17.9000022 -37.299993,18.5399958 -38.7,19.38 C-40.100007,20.2200042 -41.199996,21.239994 -42,22.44 C-42.800004,23.640006 -43.2,24.9999924 -43.2,26.52 C-43.2,28.3600092 -42.8200038,29.8599942 -42.06,31.02 C-41.2999962,32.1800058 -40.020009,33.1799958 -38.22,34.02 C-36.419991,34.8600042 -34.0400148,35.6399964 -31.08,36.36 C-28.1199852,37.0800036 -24.440022,37.9199952 -20.04,38.88 C-15.239976,39.9200052 -11.1000174,41.139993 -7.62,42.54 C-4.1399826,43.940007 -1.300011,45.6199902 0.9,47.58 C3.100011,49.5400098 4.7399946,51.7999872 5.82,54.36 C6.9000054,56.9200128 7.44,59.8399836 7.44,63.12 C7.44,66.720018 6.640008,70.0599846 5.04,73.14 C3.439992,76.2200154 1.1600148,78.859989 -1.8,81.06 C-4.7600148,83.260011 -8.3999784,84.9999936 -12.72,86.28 C-17.0400216,87.5600064 -21.8799732,88.2 -27.24,88.2 C-31.7200224,88.2 -35.9999796,87.6600054 -40.08,86.58 C-44.1600204,85.4999946 -47.7799842,83.9400102 -50.94,81.9 C-54.1000158,79.8599898 -56.6399904,77.4000144 -58.56,74.52 C-60.4800096,71.6399856 -61.5599988,68.4400176 -61.8,64.92 C-61.8800004,63.9599952 -61.5800034,63.180003 -60.9,62.58 C-60.2199966,61.979997 -59.4400044,61.68 -58.56,61.68 L-50.16,61.68 C-48.7999932,61.68 -47.7600036,61.9199976 -47.04,62.4 C-46.3199964,62.8800024 -45.7200024,63.5999952 -45.24,64.56 C-44.6799972,65.6000052 -44.000004,66.6399948 -43.2,67.68 C-42.399996,68.7200052 -41.3200068,69.639996 -39.96,70.44 C-38.5999932,71.240004 -36.9000102,71.8999974 -34.86,72.42 C-32.8199898,72.9400026 -30.2800152,73.2 -27.24,73.2 C-24.839988,73.2 -22.5200112,73.0200018 -20.28,72.66 C-18.0399888,72.3 -16.0800084,71.7000042 -14.4,70.86 C-12.7199916,70.0199958 -11.3600052,68.9800062 -10.32,67.74 C-9.2799948,66.4999938 -8.76,64.9600092 -8.76,63.12 C-8.76,61.3599912 -9.3199944,59.9200056 -10.44,58.8 C-11.5600056,57.6799944 -13.2599886,56.720004 -15.54,55.92 C-17.8200114,55.119996 -20.6399832,54.3600036 -24,53.64 C-27.3600168,52.9199964 -31.239978,52.0000056 -35.64,50.88 C-39.64002,49.9199952 -43.139985,48.7800066 -46.14,47.46 C-49.140015,46.1399934 -51.6199902,44.5200096 -53.58,42.6 C-55.5400098,40.6799904 -56.9999952,38.420013 -57.96,35.82 C-58.9200048,33.219987 -59.4,30.120018 -59.4,26.52 C-59.4,22.919982 -58.600008,19.6000152 -57,16.56 C-55.399992,13.5199848 -53.200014,10.9200108 -50.4,8.76 C-47.599986,6.5999892 -44.2600194,4.9000062 -40.38,3.66 C-36.4999806,2.4199938 -32.3200224,1.8 -27.84,1.8 Z" id="S" fill="#000000" fill-rule="nonzero" mask="url(#mask-6)"></path>
                    </g>
                    <g id="A-Copy-5" transform="translate(30.000000, 3.000000)">
                        <mask id="mask-8" fill="white">
                            <use xlink:href="#path-7"></use>
                        </mask>
                        <g id="Mask"></g>
                        <path d="M48.84,0 C50.1200064,0 51.0799968,0.3399966 51.72,1.02 C52.3600032,1.7000034 52.9199976,2.7199932 53.4,4.08 L82.8,79.92 C82.8800004,80.1600012 82.92,80.4399984 82.92,80.76 C82.92,81.6400044 82.6000032,82.3999968 81.96,83.04 C81.3199968,83.6800032 80.56,84 79.68,84 L71.04,84 C69.439992,84 68.3200032,83.6600034 67.68,82.98 C67.0399968,82.2999966 66.6000012,81.6400032 66.36,81 L61.2,67.68 L23.28,67.68 L18.12,81 C17.8799988,81.6400032 17.4400032,82.2999966 16.8,82.98 C16.1599968,83.6600034 15.040008,84 13.44,84 L4.8,84 C3.9199956,84 3.1600032,83.6800032 2.52,83.04 C1.8799968,82.3999968 1.56,81.6400044 1.56,80.76 C1.56,80.4399984 1.5999996,80.1600012 1.68,79.92 L31.08,4.08 C31.56,2.7199932 32.1199968,1.7000034 32.76,1.02 C33.4000032,0.3399966 34.3599936,0 35.64,0 L48.84,0 Z M55.44,52.68 L42.24,18.48 L29.04,52.68 L55.44,52.68 Z" id="A" fill="#000000" fill-rule="nonzero" mask="url(#mask-8)"></path>
                    </g>
                    <g id="A-Copy-6" transform="translate(9.000000, 3.000000)">
                        <mask id="mask-10" fill="white">
                            <use xlink:href="#path-9"></use>
                        </mask>
                        <g id="Mask"></g>
                        <path d="M48.84,0 C50.1200064,0 51.0799968,0.3399966 51.72,1.02 C52.3600032,1.7000034 52.9199976,2.7199932 53.4,4.08 L82.8,79.92 C82.8800004,80.1600012 82.92,80.4399984 82.92,80.76 C82.92,81.6400044 82.6000032,82.3999968 81.96,83.04 C81.3199968,83.6800032 80.56,84 79.68,84 L71.04,84 C69.439992,84 68.3200032,83.6600034 67.68,82.98 C67.0399968,82.2999966 66.6000012,81.6400032 66.36,81 L61.2,67.68 L23.28,67.68 L18.12,81 C17.8799988,81.6400032 17.4400032,82.2999966 16.8,82.98 C16.1599968,83.6600034 15.040008,84 13.44,84 L4.8,84 C3.9199956,84 3.1600032,83.6800032 2.52,83.04 C1.8799968,82.3999968 1.56,81.6400044 1.56,80.76 C1.56,80.4399984 1.5999996,80.1600012 1.68,79.92 L31.08,4.08 C31.56,2.7199932 32.1199968,1.7000034 32.76,1.02 C33.4000032,0.3399966 34.3599936,0 35.64,0 L48.84,0 Z M55.44,52.68 L42.24,18.48 L29.04,52.68 L55.44,52.68 Z" id="A" fill="#000000" fill-rule="nonzero" mask="url(#mask-10)"></path>
                    </g>
                    <g id="A-Copy-7" transform="translate(0.000000, 3.000000)">
                        <mask id="mask-12" fill="white">
                            <use xlink:href="#path-11"></use>
                        </mask>
                        <g id="Mask"></g>
                        <path d="M48.84,0 C50.1200064,0 51.0799968,0.3399966 51.72,1.02 C52.3600032,1.7000034 52.9199976,2.7199932 53.4,4.08 L82.8,79.92 C82.8800004,80.1600012 82.92,80.4399984 82.92,80.76 C82.92,81.6400044 82.6000032,82.3999968 81.96,83.04 C81.3199968,83.6800032 80.56,84 79.68,84 L71.04,84 C69.439992,84 68.3200032,83.6600034 67.68,82.98 C67.0399968,82.2999966 66.6000012,81.6400032 66.36,81 L61.2,67.68 L23.28,67.68 L18.12,81 C17.8799988,81.6400032 17.4400032,82.2999966 16.8,82.98 C16.1599968,83.6600034 15.040008,84 13.44,84 L4.8,84 C3.9199956,84 3.1600032,83.6800032 2.52,83.04 C1.8799968,82.3999968 1.56,81.6400044 1.56,80.76 C1.56,80.4399984 1.5999996,80.1600012 1.68,79.92 L31.08,4.08 C31.56,2.7199932 32.1199968,1.7000034 32.76,1.02 C33.4000032,0.3399966 34.3599936,0 35.64,0 L48.84,0 Z M55.44,52.68 L42.24,18.48 L29.04,52.68 L55.44,52.68 Z" id="A" fill="#000000" fill-rule="nonzero" mask="url(#mask-12)"></path>
                    </g>
                </g>
            </g>
        </g>
    </g>
</svg>